<svg width="32" height="32" viewBox="0 0 32 32" fill="none" xmlns="http://www.w3.org/2000/svg">
  <!-- Industrial gear icon for Swedish industrial companies -->
  <circle cx="16" cy="16" r="14" fill="#1f2937" stroke="#374151" stroke-width="2"/>
  <circle cx="16" cy="16" r="8" fill="none" stroke="#f3f4f6" stroke-width="2"/>
  <circle cx="16" cy="16" r="3" fill="#f3f4f6"/>
  <!-- Gear teeth -->
  <rect x="14" y="2" width="4" height="4" fill="#f3f4f6" rx="1"/>
  <rect x="14" y="26" width="4" height="4" fill="#f3f4f6" rx="1"/>
  <rect x="2" y="14" width="4" height="4" fill="#f3f4f6" rx="1"/>
  <rect x="26" y="14" width="4" height="4" fill="#f3f4f6" rx="1"/>
  <!-- Diagonal teeth -->
  <rect x="24.5" y="6.5" width="3" height="3" fill="#f3f4f6" rx="0.5" transform="rotate(45 26 8)"/>
  <rect x="4.5" y="22.5" width="3" height="3" fill="#f3f4f6" rx="0.5" transform="rotate(45 6 24)"/>
  <rect x="4.5" y="6.5" width="3" height="3" fill="#f3f4f6" rx="0.5" transform="rotate(-45 6 8)"/>
  <rect x="24.5" y="22.5" width="3" height="3" fill="#f3f4f6" rx="0.5" transform="rotate(-45 26 24)"/>
</svg>
